<svg width="128" height="56" viewBox="0 0 128 56" xmlns="http://www.w3.org/2000/svg" xmlns:xlink="http://www.w3.org/1999/xlink"><use xlink:href="#a" transform="translate(124.96 16.88)" fill="#002337"/><use xlink:href="#b" transform="translate(18.81 29.06)" fill="#47BAEC"/><use xlink:href="#c" transform="translate(34.85 48.17)" fill="#00ABE7"/><use xlink:href="#d" transform="translate(64.59 16.42)" fill="#002337"/><use xlink:href="#e" transform="translate(84.31 16.43)" fill="#002337"/><use xlink:href="#f" transform="translate(42.94 16.43)" fill="#002337"/><use xlink:href="#g" transform="translate(103.42 16.87)" fill="#002337"/><use xlink:href="#h" transform="translate(25.05 16.81)" fill="#002337"/><use xlink:href="#i" transform="translate(36.18 4.05)" fill="#54BAEB"/><use xlink:href="#j" transform="translate(35.92 5.18)" fill="#54BAEB"/><use xlink:href="#k" transform="translate(36.13 4.44)" fill="#54BAEB"/><use xlink:href="#l" transform="translate(36.04 4.82)" fill="#54BAEB"/><use xlink:href="#m" transform="translate(35.75 5.54)" fill="#54BAEB"/><use xlink:href="#n" transform="translate(35.98 4.99)" fill="#54BAEB"/><use xlink:href="#o" transform="translate(35.85 5.37)" fill="#54BAEB"/><use xlink:href="#p" transform="translate(.96 16.08)" fill="#47BAEC"/><use xlink:href="#q" transform="translate(1.27 .23)" fill="#A2C617"/><use xlink:href="#r" transform="translate(.01 10.52)" fill="#8DBE23"/><use xlink:href="#s" transform="translate(7.12 30.23)" fill="#A2C617"/><use xlink:href="#t" transform="translate(17.2 5.74)" fill="#A2C617"/><use xlink:href="#u" transform="translate(13.18 22.99)" fill="#6CB52D"/><use xlink:href="#v" transform="translate(36.18 3.87)" fill="#54BAEB"/><use xlink:href="#w" transform="translate(36.09 4.61)" fill="#54BAEB"/><use xlink:href="#x" transform="translate(36.16 4.25)" fill="#54BAEB"/><use xlink:href="#y" transform="translate(23.67 .02)" fill="#8DBE23"/><use xlink:href="#z" transform="translate(7.12 38.33)" fill="#6CB52D"/><use xlink:href="#A" transform="translate(28.34)" fill="#6CB52D"/><use xlink:href="#B" transform="translate(0 10.5)" fill="#6CB52D"/><use xlink:href="#C" transform="translate(25.05 16.81)" fill="#5EA62B"/><use xlink:href="#D" transform="translate(48.23 46.77)" fill="#033243"/><use xlink:href="#E" transform="translate(51.2 48.03)" fill="#033243"/><use xlink:href="#F" transform="translate(56.3 46.42)" fill="#033243"/><use xlink:href="#G" transform="translate(97.82 46.41)" fill="#D3072A"/><use xlink:href="#H" transform="translate(72.82 49)" fill="#033243"/><use xlink:href="#I" transform="translate(66.48 49)" fill="#033243"/><use xlink:href="#J" transform="translate(90.65 48.96)" fill="#D3072A"/><use xlink:href="#K" transform="translate(59.18 48.99)" fill="#033243"/><use xlink:href="#L" transform="translate(86.25 49.06)" fill="#D3072A"/><use xlink:href="#M" transform="translate(85.61 49.07)" fill="#FFF"/><use xlink:href="#N" transform="translate(85.55 49.06)" fill="#FFF"/><use xlink:href="#O" transform="translate(83.98 49.05)" fill="#FFF"/><use xlink:href="#P" transform="translate(85.47 49.05)" fill="#FFF"/><use xlink:href="#Q" transform="translate(85.54 49.05)" fill="#FFF"/><use xlink:href="#R" transform="translate(85.34 49.05)" fill="#FFF"/><use xlink:href="#S" transform="translate(81.93 49.07)" fill="#D3072A"/><use xlink:href="#T" transform="translate(79.47 49.05)" fill="#033243"/><use xlink:href="#U" transform="translate(84.74 49.09)" fill="#033243"/><defs><path id="a" d="M3.035 1.472c0 .84-.656 1.495-1.513 1.495C.672 2.967 0 2.311 0 1.472 0 .656.673 0 1.522 0c.849-.008 1.513.648 1.513 1.472zm-2.659 0c0 .655.489 1.175 1.154 1.175.648 0 1.129-.52 1.129-1.167 0-.656-.48-1.184-1.137-1.184C.857.288.376.824.376 1.472zm.905.767H.937V.768c.136-.024.32-.048.569-.048.28 0 .408.048.512.112.08.064.144.176.144.32 0 .16-.128.288-.304.344v.016c.144.056.224.16.272.36.048.223.072.311.113.367h-.369c-.048-.056-.072-.192-.12-.36-.024-.16-.12-.231-.304-.231h-.16v.591H1.28zm.008-.831h.16c.193 0 .345-.064.345-.216 0-.136-.096-.224-.312-.224-.088 0-.153.008-.193.016v.424z"/><path id="b" d="M22.802 20.306L4.012 0 0 7.23l17.027 18.403a3.928 3.928 0 0 0 2.891 1.263 3.922 3.922 0 0 0 2.884-6.59z"/><path id="c" d="M3.9 7.79c2.155 0 3.9-1.744 3.9-3.895A3.898 3.898 0 0 0 3.9 0 3.898 3.898 0 0 0 0 3.895 3.898 3.898 0 0 0 3.9 7.79z"/><path id="d" d="M2.419 27.468H.016S0 4.907 0 1.452C0 .652.216.404 1.025.428 2.331.476 3.395.86 4.053 2.05 8.385-1.419 14.52-.179 17.7 3.483c3.276 3.79 3.452 9.285.328 13.244-2.963 3.751-8.681 5.39-13.543 2.184v6.502a2.073 2.073 0 0 1-2.066 2.055zm7.48-11.285a5.886 5.886 0 0 0 5.959-5.918c0-3.199-2.651-5.862-5.855-5.878-3.315-.016-5.99 2.607-5.998 5.894-.008 3.255 2.618 5.886 5.894 5.902z"/><path id="e" d="M16.203 2.064C16.948.744 18.1.433 19.463.441c.584.008.776.176.768.751-.024 1.88-.008 3.76-.008 5.639 0 4.119.017 11.676.017 12.348 0 .672-.137 1.008-.946.992-1.313-.024-2.378-.4-3.1-1.648-2.554 2.056-5.405 2.512-8.473 1.776-2.442-.584-4.324-2.023-5.806-4.007-2.9-3.895-2.45-9.533.969-13.148 3.22-3.415 9.082-4.447 13.319-1.08zM10.26 16.18c3.348.032 5.95-2.543 5.967-5.886.016-3.223-2.587-5.879-5.799-5.903-3.283-.032-5.974 2.552-6.03 5.783a5.88 5.88 0 0 0 5.862 6.006z"/><path id="f" d="M16.203 2.065C16.948.745 18.109.417 19.47.433c.584.008.768.192.76.76-.024 1.88-.024 13.868.008 17.979.008.72-.136 1.008-.945.992-1.313-.024-2.378-.4-3.1-1.648-2.554 2.056-5.405 2.511-8.473 1.776-2.442-.584-4.324-2.024-5.806-4.007-2.9-3.895-2.45-9.534.969-13.149 3.22-3.407 9.074-4.438 13.319-1.071zM10.26 16.18c3.348.032 5.95-2.544 5.967-5.887.016-3.223-2.587-5.878-5.799-5.902-3.283-.032-5.974 2.551-6.03 5.782a5.88 5.88 0 0 0 5.862 6.007z"/><path id="g" d="M4.554 26.633a494.18 494.18 0 0 1 2.635-5.926c.6-1.32.544-2.28-.016-3.527C4.738 11.78 2.39 6.343.02.92-.076.696.197 0 .197 0h1c3.5 0 3.156-.111 4.534 2.984 1.53 3.439 3.027 6.886 4.605 10.469.89-2.016 1.714-3.903 2.547-5.783.697-1.575 1.938-4.51 2.675-6.254A2.304 2.304 0 0 1 17.704.001h3.284s-7.472 17.21-10.972 25.2c-1.057 2.416-3.132 2.983-5.462 1.432z"/><path id="h" d="M4.99 26.688c.865-1.975 2.058-4.542 2.635-5.926.576-1.392.544-2.28-.016-3.527C5.174 11.837 0 0 0 0h1.514c3.5 0 3.283-.056 4.653 3.04 1.53 3.438 3.027 6.885 4.605 10.468.89-2.015 1.714-3.903 2.547-5.782.697-1.576 1.938-4.51 2.675-6.254A2.304 2.304 0 0 1 18.14.056h3.284s-7.472 17.211-10.972 25.2C9.395 27.673 7.32 28.24 4.99 26.689z"/><path id="i" d="M.008 0C.008.064 0 .128 0 .192 0 .128.008.064.008 0z"/><path id="j" d="M.064 0C.048.056.024.12 0 .176.024.12.048.064.064 0z"/><path id="k" d="M.024 0L0 .176.024 0z"/><path id="l" d="M.048 0L0 .168.048 0z"/><path id="m" d="M0 .2C.032.136.064.072.096 0 .064.064.032.128 0 .2z"/><path id="n" d="M.056 0C.04.064.016.136 0 .2.024.128.04.064.056 0z"/><path id="o" d="M.072 0C.048.056.024.12 0 .176.024.112.048.056.072 0z"/><path id="p" d="M9.834 0L4.34 2.031a3.894 3.894 0 0 1-1.362.248C1.377 2.28-.458.432.103 1.04l12.118 13.117 4.012-7.238L9.834 0z"/><path id="q" d="M0 11.333a3.94 3.94 0 0 1 5.558.216l3.965 4.287 12.878-4.76 5.142-9.26A3.902 3.902 0 0 1 29.737 0c-.04.016-.08.024-.12.04L1.297 10.509"/><path id="r" d="M3.927 7.826c.457 0 .913-.08 1.362-.248l5.494-2.032L6.819 1.26a3.94 3.94 0 0 0-5.559-.216A3.896 3.896 0 0 0 .043 4.499c.04.256.104.512.2.76a3.907 3.907 0 0 0 3.684 2.567z"/><path id="s" d="M.472 10.165a3.918 3.918 0 0 0 1.602 5.319A3.929 3.929 0 0 0 7.4 13.892l4.252-7.894L6.062 0 .472 10.165z"/><path id="t" d="M5.622 23.321L18.501.112c.024-.04.04-.08.056-.112a3.92 3.92 0 0 1-2.13 1.895l-9.948 3.68L0 17.25l5.622 6.07z"/><path id="u" d="M4.013 0L0 7.246l5.614 6.062 4.02-7.23L4.014 0z"/><path id="v" d="M0 0v0z"/><path id="w" d="M.04 0A1.766 1.766 0 0 1 0 .2C.016.136.024.072.04 0z"/><path id="x" d="M.016 0C.008.064.008.128 0 .192 0 .128.008.064.016 0z"/><path id="y" d="M12.246 5.342c.024-.056.048-.12.064-.175.024-.064.04-.128.056-.2l.048-.168c.016-.064.024-.136.04-.2.008-.056.024-.12.024-.176.008-.064.016-.128.016-.192.008-.064.008-.128.008-.192v-.184c0-.072 0-.136-.008-.2-.008-.056-.008-.12-.016-.176l-.024-.2a1.242 1.242 0 0 0-.04-.184c-.016-.064-.024-.12-.04-.184a1.564 1.564 0 0 0-.064-.208.853.853 0 0 0-.056-.152l-.096-.216c-.024-.048-.04-.096-.064-.144-.032-.064-.072-.128-.112-.2-.025-.048-.057-.096-.08-.144a2.018 2.018 0 0 1-.113-.167c-.032-.048-.064-.104-.104-.152l-.12-.144c-.04-.048-.08-.104-.128-.152l-.12-.12a2.518 2.518 0 0 0-.152-.144l-.12-.096c-.065-.048-.12-.096-.185-.144-.04-.024-.08-.056-.12-.08a2.924 2.924 0 0 0-.208-.128c-.048-.024-.096-.048-.136-.072-.072-.032-.137-.072-.209-.104L10.02.272 9.835.2a1.742 1.742 0 0 0-.192-.056L9.467.096C9.403.08 9.338.072 9.274.056 9.21.048 9.146.032 9.09.024 9.026.016 8.97.008 8.906.008a1.676 1.676 0 0 0-.2-.008H8.53c-.072 0-.145 0-.209.008-.056.008-.112.008-.168.016a1.873 1.873 0 0 0-.208.032c-.064.008-.12.024-.184.04s-.128.024-.192.048c-.073.016-.145.04-.209.064a3.874 3.874 0 0 0-2.218 1.815L0 11.285l9.947-3.68a3.89 3.89 0 0 0 2.13-1.895c.033-.064.065-.128.097-.2.024-.048.048-.112.072-.168z"/><path id="z" d="M3.932 7.854a3.93 3.93 0 0 0 3.933-3.927A3.93 3.93 0 0 0 3.932 0 3.93 3.93 0 0 0 0 3.927a3.93 3.93 0 0 0 3.932 3.927z"/><path id="A" d="M3.932 7.854a3.93 3.93 0 0 0 3.933-3.927A3.93 3.93 0 0 0 3.932 0 3.93 3.93 0 0 0 0 3.927a3.93 3.93 0 0 0 3.932 3.927z"/><path id="B" d="M3.932 7.854a3.93 3.93 0 0 0 3.933-3.927A3.93 3.93 0 0 0 3.932 0 3.93 3.93 0 0 0 0 3.927a3.93 3.93 0 0 0 3.932 3.927z"/><path id="C" d="M1.514 0H0s.84 1.935 2.01 4.59L4.43.24C3.876-.008 3.059 0 1.514 0z"/><path id="D" d="M2.218 4.159c-.176.176-.456.28-.768.28-.337 0-.593-.088-.833-.368v.336H0V0h.633v1.584c.232-.272.488-.352.825-.352.312 0 .592.104.76.28.305.311.353.807.353 1.327 0 .504-.048 1.008-.353 1.32zM1.29 1.783c-.576 0-.656.48-.656 1.04s.08 1.048.656 1.048c.57 0 .65-.488.65-1.048s-.08-1.04-.65-1.04z"/><path id="E" d="M1.442 3.759a1.018 1.018 0 0 1-.233.392c-.176.176-.4.232-.648.232H.304v-.568h.16c.265 0 .36-.08.457-.336l.176-.488L0 0h.673l.753 2.207L2.154 0h.673L1.442 3.759z"/><path id="F" fill-rule="evenodd" d="M0 9.261c0 .2.048.248.248.248h1.33c.2 0 .248-.048.248-.24V.232C1.826.056 1.778 0 1.602 0H.272C.04 0 .008.04.008.272v8.99H0z"/><path id="G" fill-rule="evenodd" d="M1.826 2.607c.368-.016.713-.04 1.057-.048.489-.016.985-.016 1.474.072.897.152 1.434.656 1.634 1.544.104.456.152.92.16 1.383.024.72.024 1.44-.12 2.152-.096.488-.265.944-.657 1.28-.296.247-.649.367-1.017.447a6.138 6.138 0 0 1-1.482.104c-.584-.016-1.17-.064-1.754-.104-.296-.024-.584-.08-.873-.12-.152-.024-.224-.104-.24-.264C0 9.005 0 8.957 0 8.91V.328.232C.008.032.048 0 .256 0h1.306c.232 0 .264.032.264.264v2.343zm.008 5.287c.569.064 1.13.128 1.698.04.304-.048.545-.2.657-.496.056-.152.096-.304.104-.464.024-.536.024-1.072.024-1.608 0-.16-.024-.32-.064-.471-.112-.488-.36-.704-.857-.736-.505-.024-1.01-.024-1.514-.024-.016 0-.032.008-.048.008v3.75z"/><path id="H" fill-rule="evenodd" d="M4.054 2.856c0-.224.024-.44 0-.648-.048-.336-.312-.552-.697-.6a3.87 3.87 0 0 0-.52-.032H.818c-.28 0-.296-.008-.296-.287 0-.296.008-.592 0-.896 0-.128.056-.184.176-.208A11.712 11.712 0 0 1 3.782.04c.432.032.849.12 1.241.32.497.256.761.672.841 1.215.032.208.04.416.04.624v4.111c-.008.304-.104.392-.4.456-.873.168-1.754.224-2.643.232-.497 0-1.01-.008-1.506-.104C.658 6.75.218 6.359.082 5.647-.03 5.095-.038 4.544.13 4c.168-.568.568-.888 1.129-1.008a5.777 5.777 0 0 1 1.05-.12c.544-.016 1.088-.008 1.633-.008h.112v-.008zm.008 1.208c-.569 0-1.137-.016-1.698 0-.344.016-.512.2-.552.528-.016.128-.008.272.008.4a.503.503 0 0 0 .44.463c.176.032.36.056.545.056a4.76 4.76 0 0 0 1.257-.12V4.064z"/><path id="I" fill-rule="evenodd" d="M2.797 1.583c-.304.008-.585.08-.769.352-.136.192-.176.424-.2.647a9.82 9.82 0 0 0 0 1.816c.024.264.08.528.272.736.193.208.449.272.713.272.705.016 1.41.008 2.115.016h.12c.216.008.256.048.256.264v.847c0 .208-.056.264-.256.304-.841.152-1.682.184-2.531.144-.505-.024-1.01-.08-1.474-.312C.66 6.477.41 6.173.258 5.79.074 5.31.01 4.807.002 4.303c-.008-.72.008-1.44.048-2.16.024-.391.12-.775.304-1.127C.554.63.86.383 1.26.23c.4-.152.817-.2 1.242-.216a12.845 12.845 0 0 1 2.146.072c.16.016.313.048.473.072.12.024.2.088.2.224v.992c0 .12-.072.192-.192.192H3.934c-.024-.008-.768 0-1.137.016z"/><path id="J" fill-rule="evenodd" d="M1.818 4.127c.04.248.064.48.112.704.088.36.353.52.705.56.232.024.464.04.697.04.656.008 1.313 0 1.978 0 .24 0 .28.04.28.28v.871c0 .192-.04.232-.232.264-.953.168-1.914.176-2.875.144-.417-.016-.833-.072-1.226-.232-.6-.232-.937-.703-1.089-1.311A5.277 5.277 0 0 1 0 4.127c0-.64.016-1.272.048-1.911a3.1 3.1 0 0 1 .264-1.072c.257-.56.705-.864 1.29-1 .809-.176 1.626-.176 2.443-.08.28.032.552.096.816.192.57.208.873.656 1.034 1.224.136.488.168.984.192 1.487.008.288.008.576 0 .856 0 .2-.08.272-.272.288-.089.008-.169.008-.257.008h-3.74v.008zm2.467-1.2c-.04-.264-.056-.511-.112-.751a.667.667 0 0 0-.473-.52 2.2 2.2 0 0 0-1.265 0 .662.662 0 0 0-.385.272c-.2.304-.208.647-.216 1h2.45z"/><path id="K" fill-rule="evenodd" d="M6.245 3.13c-.008-.52-.04-1.064-.176-1.6C5.917.948 5.596.49 5.019.25A2.935 2.935 0 0 0 4.01.028 21.52 21.52 0 0 0 2.577.003 3.791 3.791 0 0 0 1.31.219c-.408.152-.736.408-.937.8-.232.448-.32.935-.344 1.431-.032.568-.04 1.136-.016 1.704.016.4.072.792.144 1.191.064.376.224.72.489.992.344.352.785.496 1.25.568.6.104 1.216.096 1.825.072.409-.016.825-.072 1.21-.216.312-.112.584-.296.784-.56.225-.288.329-.624.4-.975.105-.488.121-.976.129-1.496v-.6zm-1.818.624c-.024.288-.04.592-.088.888-.08.48-.305.68-.785.751a2.77 2.77 0 0 1-.961-.008c-.409-.08-.625-.32-.705-.76-.096-.56-.088-1.127-.064-1.695.008-.168.032-.336.056-.496.088-.536.304-.767.849-.823.304-.032.625-.024.93.024.424.064.648.335.712.831.04.296.048.6.072.928l-.016.36z"/><path id="L" d="M3.748.12c0-.016 0-.024-.008-.032V.072C3.732.056 3.732.048 3.716.04c-.008-.008-.024-.024-.04-.024A.523.523 0 0 0 3.54 0H2.018c-.12.008-.144.072-.184.216C1.762.52 0 6.886 0 6.886h1.281c.4 0 .665-.304.785-.68.04-.112.369-1.295.721-2.575.4-1.448.841-3.023.921-3.335L3.732.2c0-.024.008-.04.008-.064.016-.008.008-.016.008-.016z"/><path id="M" d="M0 0c.017.009.025.017.042.026C.025.017.008.009 0 0z"/><path id="N" d="M0 0c.016 0 .033.008.05.008A.103.103 0 0 0 0 0z"/><path id="O" d="M1.362 0H0h1.362z"/><path id="P" d="M0 0h.073H0z"/><path id="Q" d="M0 0h.018C.018.009.008 0 0 0z"/><path id="R" d="M.128 0H0h.128z"/><path id="S" d="M3.74.112c0-.016 0-.024-.008-.032V.064C3.724.048 3.724.04 3.716.032s-.024-.016-.04-.024S3.644 0 3.628 0h-1.61c-.12.008-.144.072-.184.216C1.762.52 0 6.886 0 6.886h1.281c.4 0 .665-.304.785-.68.04-.112.369-1.295.721-2.575 0-.008.008-.016.008-.024.4-1.44.833-3.007.913-3.311L3.732.2c0-.024.008-.04.008-.064V.112z"/><path id="T" d="M1.672 0H.166C.03 0-.018.056.006.192c0 .024.008.056.016.088.4 1.48 1.49 5.454 1.65 5.934.12.376.392.68.785.68h.008s.288-1.072.64-2.335c-.496-1.8-1.12-4.071-1.2-4.375C1.863.016 1.84 0 1.671 0z"/><path id="U" d="M.97.144A.356.356 0 0 0 .912 0c.008.008.016.024.024.032v.016c0 .008.008.024.008.032v.016c0 .016 0 .04-.008.064C.93.192.93.232.913.256.833.56.4 2.127 0 3.567c.344 1.24.657 2.36.737 2.6.12.375.392.679.785.679h.008s.288-1.072.64-2.335C1.666 2.719 1.041.456.97.144z"/></defs></svg>