<svg width="235" height="66" viewBox="0 0 235 66" fill="none" xmlns="http://www.w3.org/2000/svg">
<path d="M99.2457 64.5809H93.5756C93.5756 64.5809 93.5348 11.5095 93.5348 3.41321C93.5348 1.55105 94.0651 0.943833 95.9415 1.0248C99.0417 1.14624 101.571 2.03683 103.121 4.83007C113.36 -3.30674 127.881 -0.432543 135.387 8.19004C143.137 17.096 143.545 30.0096 136.162 39.3204C129.146 48.1454 115.603 51.9911 104.141 44.4616V59.7636C104.141 62.4354 101.938 64.5809 99.2457 64.5809ZM116.949 38.0655C124.781 38.106 131.063 31.9123 131.063 24.1398C131.063 16.6102 124.781 10.376 117.235 10.3356C109.403 10.2951 103.039 16.4888 103.039 24.1803C102.998 31.8313 109.199 38.025 116.949 38.0655Z" fill="#254886"/>
<path d="M178.504 4.87055C180.258 1.75347 182.991 1.0248 186.213 1.06528C187.6 1.06528 188.049 1.47009 188.008 2.80599C187.967 7.21848 187.967 11.631 187.967 16.0435C187.967 25.7186 188.008 43.49 188.008 45.0688C188.008 46.6476 187.682 47.4572 185.764 47.4167C182.664 47.3358 180.135 46.4857 178.422 43.5305C172.385 48.3478 165.654 49.4408 158.393 47.7001C152.601 46.3237 148.155 42.9638 144.647 38.2679C137.794 29.119 138.854 15.8411 146.931 7.33993C154.641 -0.63495 168.51 -3.06384 178.504 4.87055ZM164.471 38.0655C172.385 38.1464 178.544 32.0742 178.585 24.2208C178.626 16.6507 172.466 10.4165 164.879 10.3356C157.129 10.2546 150.725 16.3269 150.602 23.9374C150.48 31.7099 156.639 37.9845 164.471 38.0655Z" fill="#254886"/>
<path d="M80.604 4.87056C82.358 1.75347 85.1318 1.0248 88.3543 1.0248C89.7413 1.0248 90.19 1.4701 90.1492 2.80599C90.1084 7.21849 90.1084 35.3937 90.1492 45.1093C90.1492 46.8095 89.8228 47.4977 87.9056 47.4572C84.8055 47.3762 82.2764 46.5261 80.5632 43.571C74.526 48.3883 67.7954 49.4813 60.5345 47.7406C54.7422 46.3642 50.2959 43.0042 46.7878 38.3084C39.9348 29.1595 40.9954 15.8816 49.0721 7.38041C56.7409 -0.634944 70.61 -3.06384 80.604 4.87056ZM66.5717 38.0655C74.4852 38.1464 80.6447 32.0742 80.6855 24.2208C80.7263 16.6507 74.5668 10.4165 66.9796 10.3356C59.2292 10.2546 52.8249 16.3269 52.7026 23.9374C52.5802 31.7099 58.7397 37.9845 66.5717 38.0655Z" fill="#254886"/>
<path d="M196.166 63.6903C198.206 59.035 200.98 52.8413 202.407 49.7647C203.835 46.6476 203.713 44.4211 202.367 41.4659C196.615 28.7952 191.067 16.003 185.438 3.21081C185.193 2.68455 185.846 1.06528 185.846 1.06528C185.846 1.06528 187.274 1.06528 188.212 1.06528C196.493 1.06528 195.677 0.822393 198.94 8.0686C202.571 16.1649 206.119 24.2612 209.831 32.6814C211.912 27.9451 213.911 23.5326 215.869 19.0796C217.5 15.3553 220.437 8.47342 222.191 4.38477C223.048 2.36069 225.047 1.06528 227.249 1.06528L235 1.06528C235 1.06528 217.337 41.5469 209.016 60.3304C206.568 65.9978 201.673 67.3337 196.166 63.6903Z" fill="#254886"/>
<path d="M11.7887 63.6903C13.8283 59.035 16.6429 53.0032 18.0298 49.7647C19.4168 46.5261 19.3352 44.4211 17.9891 41.4659C12.2375 28.7952 0 0.943836 0 0.943836C0 0.943836 2.65145 0.943836 3.58965 0.943836C11.8703 0.943836 11.34 0.822397 14.6034 8.10909C18.2338 16.2054 21.7827 24.3017 25.4947 32.7219C27.5751 27.9856 29.5738 23.5731 31.5318 19.1201C33.1635 15.3958 36.1005 8.5139 37.8545 4.42526C38.7111 2.40118 40.7099 1.10577 42.9127 1.10577L50.663 1.10577C50.663 1.10577 33.0003 41.5874 24.6789 60.3709C22.1906 65.9978 17.2956 67.3337 11.7887 63.6903Z" fill="#254886"/>
</svg>
